<?xml version="1.0" encoding="utf-8"?>
<!-- Generator: Adobe Illustrator 21.1.0, SVG Export Plug-In . SVG Version: 6.00 Build 0)  -->
<svg version="1.1" id="Ebene_1" xmlns="http://www.w3.org/2000/svg" xmlns:xlink="http://www.w3.org/1999/xlink" x="0px" y="0px"
	 viewBox="0 0 420.3 109.6" style="enable-background:new 0 0 420.3 109.6;" xml:space="preserve">
<style type="text/css">
	.st0{fill:#4CB9EA;}
	.st1{fill:#0080C9;}
	.st2{fill:#0069B4;}
	.st3{fill:#1A4B7E;}
</style>
<g>
	<path class="st0" d="M0.4,19.3l14.3,18l4.6,14.8l-8.3,2.7L0.4,52.1l5.4-9.3c2.5-4.4,2.5-9.8,0-14.2L0.4,19.3L0.4,19.3z"/>
	<path class="st1" d="M19.3,19.3l5.4,9.3c2.5,4.4,2.5,9.8,0,14.2l-5.4,9.3L0.4,19.3l11-3.9L19.3,19.3L19.3,19.3z"/>
	<path class="st1" d="M52.1,0.4L35.7,16l-16.4,3.4l-3.2-8.5l3.2-10.4l9.3,5.4c4.4,2.5,9.8,2.5,14.2,0L52.1,0.4L52.1,0.4z"/>
	<path class="st0" d="M52.1,19.3l-9.3,5.4c-4.4,2.5-9.8,2.5-14.2,0l-9.3-5.4l11.4-6.6L52.1,0.4l3.8,10.8L52.1,19.3L52.1,19.3z"/>
	<polygon class="st0" points="19.3,0.4 0.4,19.3 19.3,19.3 19.3,9.4 19.3,0.4 	"/>
	<path class="st2" d="M71,52.1L56.4,39.9l-4.3-20.6L60,16l11,3.4l-5.4,9.3c-2.5,4.4-2.5,9.8,0,14.2L71,52.1L71,52.1z"/>
	<path class="st3" d="M52.1,52.1l-5.4-9.3c-2.5-4.4-2.5-9.8,0-14.2l5.4-9.3L71,52.1l-10.1,3.7L52.1,52.1L52.1,52.1z"/>
	<path class="st3" d="M19.3,71l15.9-14.9l16.9-4l4.6,7.9l-4.6,11l-9.3-5.4c-4.4-2.5-9.8-2.5-14.2,0L19.3,71L19.3,71z"/>
	<path class="st2" d="M19.3,52.1l9.3-5.4c4.4-2.5,9.8-2.5,14.2,0l9.3,5.4L19.3,71l-3.9-9.5L19.3,52.1L19.3,52.1z"/>
	<polygon class="st2" points="52.1,71 71,52.1 52.1,52.1 52.1,71 	"/>
	<polygon class="st1" points="71,19.3 52.1,0.4 52.1,19.3 71,19.3 	"/>
	<polygon class="st3" points="19.3,71 19.3,52.1 0.4,52.1 19.3,71 	"/>
	<path class="st3" d="M86.3,43c-0.6-2-0.9-4.4-0.9-7c0-2.7,0.3-5,0.9-7c0.6-2,1.3-3.6,2.2-4.8c0.9-1.2,2-2.2,3.3-2.9
		c1.3-0.8,2.5-1.3,3.7-1.5c1.2-0.3,2.5-0.4,3.9-0.4c3.1,0,6.1,0.6,9.1,1.9v5.5c-2.9-1.4-5.7-2.1-8.6-2.1c-1.3,0-2.5,0.1-3.5,0.4
		c-1,0.3-1.9,0.8-2.8,1.5c-0.9,0.7-1.6,1.9-2.1,3.5c-0.5,1.6-0.7,3.6-0.7,6c0,2.4,0.2,4.4,0.7,6c0.5,1.6,1.2,2.8,2.1,3.5
		c0.9,0.7,1.8,1.2,2.8,1.5c1,0.3,2.1,0.4,3.5,0.4c2.9,0,5.7-0.7,8.6-2.1v5.5c-3,1.3-6,2-9.1,2c-1.4,0-2.7-0.1-3.9-0.4
		c-1.2-0.3-2.5-0.8-3.7-1.5c-1.3-0.8-2.4-1.7-3.3-2.9C87.6,46.6,86.9,45,86.3,43L86.3,43z"/>
	<path class="st3" d="M113.2,52.3V19.7h11.5c3.5,0,6.2,0.9,8.2,2.7c1.9,1.8,2.9,4.4,2.9,7.8c0,5-2.2,8.2-6.6,9.6l7.9,12.4h-6.5
		l-7.1-11.5h-4.8v11.5H113.2L113.2,52.3z M118.6,35.4h6c1.8,0,3.3-0.4,4.3-1.1c1-0.7,1.6-2,1.6-4c0-2-0.5-3.3-1.6-4
		c-1-0.7-2.5-1-4.3-1h-6V35.4L118.6,35.4z"/>
	<path class="st3" d="M139.6,36c0-2.7,0.3-5,0.9-7c0.6-2,1.3-3.6,2.2-4.8c0.9-1.2,2-2.2,3.3-2.9c1.3-0.8,2.5-1.3,3.7-1.5
		c1.2-0.3,2.5-0.4,3.9-0.4c1.4,0,2.7,0.1,3.9,0.4c1.2,0.3,2.5,0.8,3.7,1.5c1.3,0.7,2.4,1.7,3.3,2.9c0.9,1.2,1.7,2.8,2.2,4.8
		c0.6,2,0.9,4.4,0.9,7c0,2.6-0.3,5-0.9,7c-0.6,2-1.3,3.6-2.2,4.8c-0.9,1.2-2,2.2-3.3,2.9c-1.3,0.8-2.5,1.3-3.7,1.5
		c-1.2,0.3-2.5,0.4-3.9,0.4c-1.4,0-2.7-0.1-3.9-0.4c-1.2-0.3-2.5-0.8-3.7-1.5c-1.3-0.8-2.4-1.7-3.3-2.9c-0.9-1.2-1.6-2.8-2.2-4.8
		C139.9,41,139.6,38.6,139.6,36 M145,35.9c0,2.4,0.2,4.5,0.7,6.1c0.4,1.6,1.1,2.8,2,3.5c0.9,0.8,1.8,1.3,2.7,1.5
		c0.9,0.3,2,0.4,3.3,0.4c1,0,1.9-0.1,2.7-0.2c0.7-0.1,1.5-0.4,2.3-0.9c0.8-0.5,1.4-1.1,1.9-1.9c0.5-0.8,0.9-2,1.2-3.4
		c0.3-1.4,0.5-3.1,0.5-5.1c0-2.4-0.2-4.4-0.7-6c-0.4-1.6-1.1-2.8-2-3.5c-0.9-0.8-1.8-1.3-2.7-1.5c-0.9-0.3-2-0.4-3.3-0.4
		c-1,0-1.9,0.1-2.6,0.2c-0.7,0.1-1.5,0.5-2.3,0.9c-0.8,0.5-1.4,1.1-1.9,1.9c-0.5,0.8-0.9,1.9-1.2,3.3C145.2,32.3,145,34,145,35.9"/>
	<polygon class="st3" points="169.2,19.7 174.6,19.7 181.4,44.2 188.7,19.7 193.4,19.7 200.4,43.4 207.1,19.7 212.5,19.7 
		202.9,52.3 197.8,52.3 191,29.5 184.3,52.3 178.8,52.3 169.2,19.7 	"/>
	<path class="st3" d="M216.1,52.3V19.7h10.3c4.6,0,8.2,1.4,10.6,4.1c2.4,2.8,3.6,6.8,3.6,12.1c0,5.3-1.2,9.3-3.6,12.1
		c-2.4,2.8-5.9,4.1-10.6,4.1H216.1L216.1,52.3z M221.5,47h4.9c3.1,0,5.4-0.9,6.7-2.6c1.4-1.7,2.1-4.5,2.1-8.4c0-3.9-0.7-6.7-2.1-8.5
		c-1.4-1.7-3.6-2.6-6.7-2.6h-4.9V47L221.5,47z"/>
	<path class="st2" d="M245.6,43c-0.6-2-0.9-4.4-0.9-7c0-2.7,0.3-5,0.9-7c0.6-2,1.3-3.6,2.2-4.8c0.9-1.2,2-2.2,3.3-2.9
		c1.3-0.8,2.5-1.3,3.7-1.5c1.2-0.3,2.5-0.4,3.9-0.4c3.1,0,6.1,0.6,9.1,1.9v5.5c-2.9-1.4-5.7-2.1-8.6-2.1c-1.3,0-2.5,0.1-3.5,0.4
		c-1,0.3-1.9,0.8-2.8,1.5c-0.9,0.7-1.6,1.9-2.1,3.5c-0.5,1.6-0.7,3.6-0.7,6c0,2.4,0.2,4.4,0.7,6c0.5,1.6,1.2,2.8,2.1,3.5
		c0.9,0.7,1.8,1.2,2.8,1.5c1,0.3,2.1,0.4,3.5,0.4c2.9,0,5.7-0.7,8.6-2.1v5.5c-3,1.3-6,2-9.1,2c-1.4,0-2.7-0.1-3.9-0.4
		c-1.2-0.3-2.5-0.8-3.7-1.5c-1.3-0.8-2.4-1.7-3.3-2.9C246.9,46.6,246.1,45,245.6,43L245.6,43z"/>
	<path class="st2" d="M271,36c0-2.7,0.3-5,0.9-7c0.6-2,1.3-3.6,2.2-4.8c0.9-1.2,2-2.2,3.3-2.9c1.3-0.8,2.5-1.3,3.7-1.5
		c1.2-0.3,2.5-0.4,3.9-0.4c1.4,0,2.7,0.1,3.9,0.4c1.2,0.3,2.5,0.8,3.7,1.5c1.3,0.7,2.4,1.7,3.3,2.9c0.9,1.2,1.7,2.8,2.2,4.8
		c0.6,2,0.9,4.4,0.9,7c0,2.6-0.3,5-0.9,7c-0.6,2-1.3,3.6-2.2,4.8c-0.9,1.2-2,2.2-3.3,2.9c-1.3,0.8-2.5,1.3-3.7,1.5
		c-1.2,0.3-2.5,0.4-3.9,0.4c-1.4,0-2.7-0.1-3.9-0.4c-1.2-0.3-2.5-0.8-3.7-1.5c-1.3-0.8-2.4-1.7-3.3-2.9c-0.9-1.2-1.6-2.8-2.2-4.8
		C271.3,41,271,38.6,271,36 M276.4,35.9c0,2.4,0.2,4.5,0.7,6.1c0.4,1.6,1.1,2.8,2,3.5c0.9,0.8,1.8,1.3,2.7,1.5
		c0.9,0.3,2,0.4,3.3,0.4c1,0,1.9-0.1,2.7-0.2c0.7-0.1,1.5-0.4,2.3-0.9c0.8-0.5,1.4-1.1,1.9-1.9c0.5-0.8,0.9-2,1.2-3.4
		c0.3-1.4,0.5-3.1,0.5-5.1c0-2.4-0.2-4.4-0.7-6c-0.4-1.6-1.1-2.8-2-3.5c-0.9-0.8-1.8-1.3-2.7-1.5c-0.9-0.3-2-0.4-3.3-0.4
		c-1,0-1.9,0.1-2.6,0.2c-0.7,0.1-1.5,0.5-2.3,0.9c-0.8,0.5-1.4,1.1-1.9,1.9c-0.5,0.8-0.9,1.9-1.2,3.3
		C276.5,32.3,276.4,34,276.4,35.9"/>
	<path class="st2" d="M304.1,52.3V19.7h10.3c4.6,0,8.2,1.4,10.6,4.1c2.4,2.8,3.6,6.8,3.6,12.1c0,5.3-1.2,9.3-3.6,12.1
		c-2.4,2.8-5.9,4.1-10.6,4.1H304.1L304.1,52.3z M309.5,47h4.9c3.1,0,5.4-0.9,6.7-2.6c1.4-1.7,2.1-4.5,2.1-8.4c0-3.9-0.7-6.7-2.1-8.5
		c-1.4-1.7-3.6-2.6-6.7-2.6h-4.9V47L309.5,47z"/>
	<polygon class="st2" points="333.5,52.3 333.5,19.7 353.4,19.7 353.4,25 338.9,25 338.9,33.2 351.5,33.2 351.5,38.8 338.9,38.8 
		338.9,47 353.4,47 353.4,52.3 333.5,52.3 	"/>
	<path class="st3" d="M232.2,89.1c-0.1,0.3-0.1,0.5-0.1,0.8c0,0.5-1,2.7-1.2,3.1c-0.4,0.6-0.8,1.2-0.8,1.9c0,0.5-0.2,0.1-0.2,0.4
		c0,0.3-0.1,0.5-0.2,0.8c-0.2,0.5-0.3,1-0.6,1.4c-0.1,0.2-0.4,0.1-0.4,0.4c-0.3,0.3-0.1,0.9-0.3,1.3c-0.2,0.3-1.4,3.3-1.5,3.8
		c0,0.3-0.2,0.4-0.3,0.6c-0.1,0.3,0,0.8,0.1,1.2c0,0.4,0.6,0.7,0.2,1c-0.6,0.5-1,0.3-1.4-0.2c-0.4-0.5-0.6-1.1-0.6-1.8
		c0-0.5,0-1,0.2-1.4c0.2-0.4,0.4-1.7,0.6-2c0.5-0.6,0.9-1.6,1-2.4c0.2-0.3,0.5,0,0.6-0.2c0.2-0.4-0.3-0.3-0.1-0.6
		c0.6-0.9,0.9-2,1.2-3c0.3-0.9,1.3-2.2,1.5-3.3c0.1-0.7,0.6-1,0.8-1.7c0.4-1.3,0.8-2.2,2.2-2C232.9,87.5,232.5,88.4,232.2,89.1
		L232.2,89.1z M232.6,86.7c-0.3-0.3-1.3-0.5-0.7-0.8C232.6,85.5,232.9,86.2,232.6,86.7L232.6,86.7z"/>
	<path class="st3" d="M239.4,101.3l-0.5,1.1c-0.7,1.6-1,3.2-0.7,4.9c-0.4,0.5,0.3,0.9,0.1,1.4c-0.3,0.3-0.3,0.3-0.8,0.1
		c-0.5-0.2-0.4-0.2-0.6-0.7c-0.3-0.7-0.8-1.4-0.8-2.2c0.1-0.8,0.3-1.6,0.6-2.4c0.2-0.7,0-1.2,0.4-1.8c0.2-0.4,1.7-4,1.7-4.2
		c-0.1-0.4,0-0.5,0.3-0.7c0.3-0.3,0-0.7,0.2-1c0.4-0.5,0.5-1.2,0.7-1.7c0.3-0.7,1-1.3,1-2.1c0.5-0.8,1.1-1.9,1.9-2.6
		c0.2-0.2,0.6,0,0.7-0.3c-0.1-0.1-0.3-0.2-0.2-0.3l0.5,0c0.1-0.1-0.1-0.1-0.2-0.2c0.3-0.1,0.3-0.2,0.5-0.1c0,0.2,0.1,0.2,0.2,0.4
		c0.1,0.3-0.1,0.5-0.2,0.8l-0.9,1.9c-0.2,0.4-0.7,0.7-0.7,1.3c0,0.8-0.7,1.3-0.9,2.2c-0.3,0.6-0.5,2.1-1.2,2.8
		c-0.4,0.3-0.8,2.1-1.2,2.7C239.3,100.7,239.5,101,239.4,101.3L239.4,101.3z M240.6,84.2c0.5,0.2,1.6-0.1,2.2-0.1
		c1.5,0.1,3.5-0.1,5,0.2c0.7,0.2,1.4,0.4,2.1,0.3c0.7-0.1,1.5,0.1,2.2,0.2c0.3,0,0.6,0.1,0.9,0.1c0.8-0.2,0.8,0.3,0.6,1
		c-0.2,0.3-0.2,0.3-0.7,0.4c-0.4,0.1-0.9,0.2-1.3,0.2c-0.4,0.1-0.7,0.1-1.1,0.1c-1.2,0.1-2.4,0-3.4-0.2c-1.4-0.3-3.3-0.1-4.3-0.2
		c-0.7-0.1-1.2,0-1.9-0.2c-0.2-0.1-0.2-0.3-0.5-0.3c-0.5,0-0.6,0.4-2.1,0.3c-0.2,0-0.4-0.4-0.6-0.6c-0.3,0.1-0.5,0.5-0.8,0.4
		c-0.3-0.1-0.3-0.4-0.1-0.7c0.2-0.2,0.3-0.5,0.5-0.7c0.4-0.5,1-0.2,1.5-0.5C239.6,84,240,84,240.6,84.2L240.6,84.2z M244.8,88.5
		c0-0.2-0.1-0.3-0.2-0.4c0-0.2,0.3-0.1,0.4-0.2C245.3,87.9,245.2,88.1,244.8,88.5L244.8,88.5z"/>
	<path class="st3" d="M266.1,96.6c-0.2,1-3.3,1.4-5.3,1.5c-0.6,0.1-3.8,0.7-4.9,0.7c-0.5,0-1.5,0.3-1.5-0.4c-0.1-1.4,0.8,0.6,1-0.6
		c0.1-0.9-1.4,0-1.7-0.5c-0.3-0.6,1.1-0.7,1.6-0.6c1.8,0.2,3.6,0,5.3-0.3c0.3-0.1,0.8-0.5,1.3-0.5c0.8,0,1.7-0.3,2,0.3
		C264.2,96.8,266.2,96,266.1,96.6L266.1,96.6z"/>
	<path class="st3" d="M277.8,94.1c0.9-0.3,2-0.4,2.9-0.6c0.5-0.1,0.1-0.2,0.6-0.4c0.4-0.1,0.8,0.2,0.9-0.3c0.3,0,0.9-0.2,1.1-0.1
		c0,0.2,0,0.2,0.2,0.2c0,0.3-0.2,0.2-0.3,0.5c-0.2,0.2-0.4,0.4-0.6,0.5c-0.7,0.4-1.4,0.8-2.2,1l-0.4,0.1c0.1,0.2,0,0.4-0.2,0.3
		c-0.5,0.1-0.7,0.4-1.3,0.3c-0.2,0.1-0.3,0.3-0.6,0.4c-0.6,0.1-1.2,0.2-1.8,0.2l-1.4-0.1c0-0.4-0.6-0.3-0.7,0
		c-0.1,0.4-0.1,0.7-0.5,0.9c-0.7,0.4-0.9,2.8-1.3,3.4c-0.3,0.5,0,1.3,0.3,1.7c0.7,0.7,1.7,0.9,2.8,0.8c1.7-0.1,3.6-0.8,4.8-1.3
		c0,0.4,0.3,0.3,0.1-0.1c-0.1-0.2,0.6-0.1,0.9-0.2c0.4-0.1,0.6-0.4,0.8-0.6c0.6,0,0-0.2,0.4-0.2c0.1-0.1,0.4-0.2,0.5-0.2
		c0,0.2-0.1,0.3-0.1,0.4c0.1,0,0.2-0.2,0.2-0.3c0.2-0.4,0.2-0.4,0.6-0.2c0-0.1-0.2-0.2-0.2-0.3c0.2-0.2,0.6-0.4,0.7-0.3
		c0,0.5,0,0.3-0.3,0.5c0.1,0.1,0.1,0,0.2,0.2c0,0.2-0.5,0.1-0.6,0.2c0.1,0.1,0.3,0.1,0.2,0.2c-0.1,0.1-0.3,0.3-0.4,0.1
		c0-0.2,0.2-0.5-0.1-0.3c-0.2,0.1-0.2,0.6-0.3,0.8c-0.2,0.4-0.8,0.2-0.8,0.7c-0.1,0.1-0.3,0.2-0.4,0.3c-0.4-0.1-0.4,0.1-0.7,0.4
		l-1,0.5c-0.9,1-2.8,1.4-4,1.6c-0.3,0-1.5,0.1-1.6,0c-0.2-0.2-0.4,0.1-0.6,0c-0.3-0.5-0.4-0.1-0.9-0.3c-0.6-0.3-1.6-0.8-2-1.2
		c-0.3-0.3-0.1-0.4-0.4-0.7c-0.1-0.3,0.2-0.7,0-0.9c-0.7-0.9,0.7-2.6,0.5-3.4c0.2-0.9,0.5-1.7,0.9-2.6c0.8-1.2,1.2-3.3,2.2-4.4
		c0.3-0.3,0.7-0.8,1-1c-0.3-0.5,0.6-0.9,0.9-0.6L276,90l1,0.3c-0.2,0.3-0.2,0.4-0.6,0.3c-0.2-0.1-0.3,0.1-0.2,0.2
		c0.4-0.3,0.3,0.6,0.2,0.9c-0.2,0.4-0.7,0.7-0.4,1.3c-0.7,0.1-1,1.2-0.9,1.8c0.1,0.1,0.2,0,0.1-0.2
		C276.1,94.4,276.9,94.4,277.8,94.1L277.8,94.1z M278,88.6c0.1,0.3,0,0.7-0.3,0.8c-0.2-0.2-0.3-0.2-0.5-0.4c-0.2,0-0.4,0-0.4,0.2
		l0.3,0.2c-0.1,0.3-1.9,0.2-1.2-0.6c0.2-0.1,0.4-0.1,0.3-0.3c0-0.2,0.1-0.2,0.3-0.3c0.3-0.2,1.1-0.5,1.2,0.1L278,88.6L278,88.6z
		 M277.4,90.6c-0.1,0-0.2,0-0.3-0.1c0.1-0.1,0.2-0.1,0.3-0.1L277.4,90.6L277.4,90.6z M287.3,86.5c-0.3,0-0.4-0.2-0.7-0.3
		c-0.8,0.2-1.6,0-2.4,0.1c-1.4,0.1-2.7,0.6-3.9,0.7c-0.4,0.1-1.4,0.3-1.4-0.1c-0.2-0.1-0.3,0.2-0.4,0.1c0-0.3,0.5-0.5,0.5-1
		c-0.3-0.2-1.7,0.2-1.3-0.2c0.3-0.3,0.6-0.5,1.1-0.6c0.7-0.1,1.3,0,2-0.2c0.6-0.1,1.5-0.2,2.4-0.3c1-0.1,2-0.1,2.5,0
		c0.3,0.1,0.4,0.1,0.8,0.1c0.7,0,0.1,0.1,0.5,0.3c0.2,0,0.4-0.1,0.5-0.1c0.1,0,0.1,0.3,0.2,0.3c0.4-0.1,1-0.1,0.7,0.5
		c0.4,0,1.1,0.5,0.5,0.7c0-0.1,0.1-0.4-0.2-0.4c-0.1,0,0,0.2,0,0.3L287.3,86.5L287.3,86.5z M283.9,92.8c-0.2,0-0.3-0.2-0.1-0.3
		C284.2,92.5,284,92.6,283.9,92.8L283.9,92.8z"/>
	<path class="st3" d="M303.6,91.7c0,0.4-0.1,0.2-0.4,0.3c-0.3,0.1-0.6,0.4-0.8,0.6c-0.3,0.3-0.6,0.5-0.9,0.6
		c-0.4,0.1-0.2,0.2-0.6,0.3c-0.1,0-1.7,1.8-2,2.2c-0.3,0.5-1.3,1.3-1.8,2l-2.3,2.3c-0.2,0.4-0.8,0.7-1.2,1.2c-0.3,0.3-0.7,0.2-1,0.6
		c-0.3,0.4-1,0.6-1.7,0.6c-0.3,0-0.2-0.5-0.5-0.4c-0.7,0.3-0.6-0.4-0.6-0.6c-0.2-0.7-0.1-1.4-0.2-2.1c0-0.8,0.5-1.6,0.5-2.4
		c0-0.7,0.2-2,0.6-2.7c0.2-0.4,0.4-0.5,0.9-0.6l0.4,0.3c0.4-0.1,0.6-0.5,0.3-0.8c-0.1-0.1-0.3-0.1-0.4-0.3c0.4-0.2,0.7,0.1,0.6,0.5
		c-0.1,0.4-0.1,0.5-0.4,0.8c-0.2,0.2,0.4-0.1,0.1,0.3c-0.1,0.1-0.1,0.5,0,0.8c0.1,0.4-0.3,0.5-0.3,0.7c0.1,0.3,0.2,0.5-0.1,0.7
		c-0.1,0.1,0-0.3-0.2-0.2c-0.2,0.1-0.1,0.5,0,0.7c0,0.1,0.1-0.2,0.1-0.1c0.2,0.4-0.3,1.7-0.4,2.1c-0.1,0.3-0.5,1-0.2,1
		c0.3,0,2.4-1.3,2.7-1.8c0.4-0.7,1.1-1.1,1.7-1.8c0.2-0.2,1.1-1.3,1.4-1.3c0.5,0,1.6-2,1.7-2.1l0.8-1c0.3-0.3,0.7-0.7,1.1-0.9
		c0.2-0.1,0.4-0.1,0.6-0.1c0.3,0.1,0.5-0.2,0.8-0.3c0.3-0.1,1.1-0.2,1.4,0C303.5,91.2,303.6,91.5,303.6,91.7L303.6,91.7z"/>
	<path class="st3" d="M315.4,98.1c-0.3,0.4-0.6-0.3-0.7,0.1c-0.1,0.4,0.4,0.2,0.1,0.5c-0.2,0.2-0.4,0.4-0.7,0.6
		c-0.1,0.2-0.6,1-0.8,1.2c-0.3,0.3-1.3,0.8-1.4,1c-0.4,0.7-2.2,1.6-2.7,1.7c-0.9,0.2-1.4,0.4-2.4,0.3c-0.4,0-1.2,0.1-1.6-0.1
		c-0.4-0.3-0.8-0.7-1-1.1c-0.2-0.4-0.3-1-0.4-1.6c0-0.8,0.1-1.7,0.2-2.5c0.2-0.9,0.7-2.4,1.4-3c0.4-0.3,0.5-0.3,0.7-0.7
		c0.3-0.5,0.6,0.2,0.9-0.1c0.3-0.4-0.5-0.6-0.3-1.1c0.3-0.4,0.6-0.3,1-0.5c0.7-0.5,1.5-1.4,2.2-0.9c0.4,0.3,0.1,0.3,0.5,0.5
		c0.6,0.2,0.6,1.5,0.4,2c-0.1,0.2-0.2,0.2-0.2,0.3c0.1,0.2-0.1,0.6-0.4,0.4c-0.3-0.2-0.7-0.1-0.7-0.7c0-0.2,0-0.9-0.4-0.7
		c-0.6,0.3-1.1,1.3-1.4,1l-0.3-0.3c-0.7,0.4,0.1,0.4,0.2,0.8c0,0.2-0.2,0.5-0.3,0.7c-0.3,0.5-0.7,0.5-0.9,1.1c-0.2,1-0.9,1.9-1,3
		c-0.1,1.2,0.4,2.2,1.8,2.1c0.9,0,2.2-0.5,3-1.2c0.6-0.6,1.4-1.1,2-1.8c0.2-0.2,0.9-1,0.9-0.6c0,0.1-0.3,0.2-0.1,0.3
		c0.7,0.3,1.3-1.3,1.6-1.8c0.5-0.9,1.1-1.8,0.3-2.6c-0.5-0.6,0.3-0.4,0-0.9c-0.3-0.5-0.4,0.5-1.1,0.3c-0.3-0.1-0.1-0.3-0.2-0.5
		c-0.1-0.1-0.5,0-0.5,0.1c-0.1,0.1,0.1,0.2,0,0.2c-0.3,0.1-0.2-0.5-0.4-0.3c-0.4,0.5,0.1,0.6-0.5,1.3c-0.2,0.3-0.4,0.5-0.6,0.3
		c-0.1-0.1,0.1-0.1,0.1-0.2c-0.3-0.7-0.3-0.8,0-1.2c0.2-0.2,0.4-0.4,0.6-0.5c0.4-0.2,0.3,0.3,0.5,0.1c0.1-0.2-0.2-0.3,0-0.3
		c0.1,0,0.2,0.2,0.3,0.2c0.3-0.1,0.2-0.6,0.5-0.7c0.4-0.1,1.7,0.2,2,0.4c0.5,0.3,0.4,0.7,0.8,1.1c0.2,0.4,0.4,0.7,0.2,1.1
		C316.3,96,316.1,97.1,315.4,98.1L315.4,98.1z"/>
	<path class="st3" d="M326.2,87.7c-1.8,2.9-3.8,5.7-4.3,9.4c-0.1,0.4-0.2,1-0.1,1.5c0,0.5,0.2,0.9,0.9,0.7c0.9-0.2,3.3-2,4-2.5
		c1.7-1.3,2.9-1.9,4.6-3.3c0.8-0.8,5.4-3.1,6.4-2.9c0.5,0.2,0.7,0.5,0.7,1c0.1,1.7-2,4.8-2,5.8c0.8,0,1.2-0.7,1.9-1.1
		c1-0.8,2.9-2.2,4.1-3.2c1.4-1.3,3.6-2.4,5.5-2.7c0.9-0.1,1.2,0.6,1.3,1.5c0.1,1-0.3,2.3-0.6,2.8c-0.4,0.7-0.2,1.6-0.5,2.3
		c-0.2,0.5-0.2,0.9-0.2,1.3c0,0.5,0.2,1,0.4,1.7c-1.2,0.3-2.1-1.5-2.1-2.7c0.1-0.9,0-2.7,0.5-3.6c0.8-1.6-0.5-1.1-1.4-0.7
		c-1.5,0.7-3,1.7-3.9,3c-0.6,0.9-2.6,1.9-3.4,2.4c-0.5,0.4-1.2,0.6-1.9,0.6c-1,0.1-1.9-0.4-1.7-1.8c0.4-1.5,1.3-2.7,1.6-4.1
		c-1,0.1-2.6,0.9-3.4,1.5c-1.8,1.2-4,2.4-5.8,3.9c-1.1,1-4.4,3.1-5.8,2.4c-0.9-0.4-1.1-1-1.1-1.5l0.1-2c-0.2-3.6,4.2-10,6-12.9
		c0.8-1.2,1.7-0.8,2.5-2c0.4-0.5-0.6-0.9-0.4-1.5c0.2-0.6,1-1.7,1.9-1c-0.1,0.5-1.6,0.7-1.4,1.1c0.2,0.4,0.6,1.1,0.5,1.5
		C328.8,84.7,327.3,86,326.2,87.7L326.2,87.7z M349.1,99.8c-0.4,0.2-0.8-0.3-0.5-0.6C349.5,98.4,350.2,99.2,349.1,99.8L349.1,99.8z"
		/>
	<path class="st3" d="M365.3,99.4c-0.1-1.1,0.9-2.8,0.9-3.7c0-0.6,0-1,0-1.4c0-0.6-0.2-1-1-1.7c-0.9-0.9-2.7-1.4-4.2-1.3
		c-0.9,0-1.8,0.3-2.2,1c-1,1.3-1.5,2.8-2.2,4.1c-0.4,0.7-1.4,2.2-1.4,2.9c0,0.7,0.7,0.3,0.4,0.7c-0.2,0.4-1.1,1.5-1.7,0.3
		c-0.4-0.9,1-4.7,1.4-5.4c0.3-0.5,1.6-3.2,1.7-3.4c-0.4,0-3.8-0.1-3.7-1.4l0.1-0.7c0.1-0.6,0.8-0.8,1.3-0.8c0.4,0,0.7,0.1,1,0.3
		c0.3,0.3-0.3,0.5-0.2,0.7c0.2,0.2,0.6,0.4,1,0.3c1-0.1,2.3-0.8,2.6-1.3c1.4-2.4,3.4-6,5.4-7.9c1.2-1.2,1.4-3.1,2.4-3.9
		c0.2,0.5,1.3,0.1,1.1,0.9c-0.3,0.6-0.4,2.6-1.9,3.9c-1.6,1.3-3.1,4.1-3.9,5.8c-0.4,0.7-0.8,1.5-1.4,2.1c2.8-0.1,6.7,0.8,7.3,4
		c0.3,1.4-0.2,5.1-1.1,6.3c-0.2,0.3-0.6,0.4-0.6,0.8C365.6,100.4,365.4,99.9,365.3,99.4L365.3,99.4z M368.5,75.8
		c-0.2,1-0.9,0.5-1-0.3c0.1,0,0.2-0.2,0.4-0.2C368.1,75.3,368.5,75.5,368.5,75.8L368.5,75.8z M377.9,80.1c-0.6,0.3-2.7-0.2-2.7-1
		c0-0.7,1.5-1.1,2.1-1C377.9,78.2,378.8,79.7,377.9,80.1L377.9,80.1z"/>
	<path class="st3" d="M406.8,92.5c0,0.5,0,1.1-0.1,1.3c-0.2,0.3,0,0.9-0.3,1.1c-0.3,0.2-0.4,0.3-0.5,0.7c-0.1,0.7,1.4,2.3,0.9,2.5
		c-0.5,0.2-2.3-1.7-2.3-2.1l-0.1-1c0.1-0.6,0.8-1.9,0.7-2.9c0-0.6-0.3-1.1-1-1.3c-0.4-0.1-0.8-0.1-1.2-0.1c-1.9,0.1-4.1,1.4-5.5,1.8
		c-0.5,0.2-1.8,0.9-2.1,1.4c-1,1.9-1,1.5-1.7,1.5c-1.3,0.1-0.6-1.6,0.1-3.7c0.2-0.5,1.2-1.5,0.2-1.9c-0.2-0.1-2.7,0.2-4.3,0.3
		c-0.7,0-1.2,0-1.5-0.1c-0.5,0-0.4,0.1-0.6,0.4c-0.1,0.2-5.6,2.1-6.6,3.4c-0.7,0.9-2.3,2.7-4.2,2.8c-0.7,0-1.4-0.1-2.1-0.6
		c-0.8-0.5-1.1-1.2-1.2-1.9c0-0.8,0.2-1.5,0.6-2.2c0.7-1.4,2.3-3.4,3.8-3.9c0.5-0.1,1.9-1.1,2.9-1.2c0.5,0,0.9,0.1,1.1,0.7
		c-0.9,0.9-1.5,1.1-2,1.1c-0.6,0-0.9-0.2-1.4,0.2c-0.3,0.2,0.4,0.5,0.6,0.8c-0.3,0.1-0.4,0.4-0.7,0.5c-0.7,0.4-3,2.6-2.9,3.7
		c0,0.5,0.4,0.8,1.4,0.7c1.6-0.6,1.7-0.8,2.8-1.7c0.7-0.7,0.4-1.5,0.8-2.3c0.5-1,1.4-1.8,2.6-1.8c1.1,0,0.5,1.5,1.2,1.4
		c0.9-0.1,2.4-1.2,3.2-1.1c1.9,0.2,3.7-0.7,5.7-0.8c0.4,0,0.8,0,1.2,0c0.6,0.1,1.6,0.4,1.8,1c0.4,1.1-0.1,1.7-0.1,2.1
		c2.3-1.3,4.5-2.2,7.4-2.2c1.1,0,2.8,0.1,3.2,1.6C406.7,91.3,406.8,91.9,406.8,92.5L406.8,92.5z M380.7,93.8
		c-0.3-1.1-1.8,0.2-1.3,0.7C380.2,95,380.4,93.9,380.7,93.8L380.7,93.8z M384.4,91.4c-0.4-0.1-1.1-0.4-1.4-0.1
		c-0.1,0.2,0.4,0.5,0.6,0.4L384.4,91.4L384.4,91.4z"/>
	<path class="st3" d="M418.5,98c-0.3,0-0.6-0.1-0.8-0.6c-0.1-0.3-1.4-0.4-2.1-0.1c-0.5,0.2-0.6,1.2-1.3,0.4
		c-0.2-0.3,0.1-0.7-0.4-0.9c-0.9-0.4,0.7-1.9,1.3-1.5c0.4,0.2,0.8-0.3,1.3-0.4c0.8-0.1,1.4,0.3,2,0.4c0.4,0.1,0.5,1,0.6,1.3
		C419.6,97.3,419.1,97.9,418.5,98L418.5,98z"/>
</g>
</svg>
