<?xml version="1.0" encoding="utf-8"?>
<!-- Generator: Adobe Illustrator 21.1.0, SVG Export Plug-In . SVG Version: 6.00 Build 0)  -->
<svg version="1.1" id="Ebene_1" xmlns="http://www.w3.org/2000/svg" xmlns:xlink="http://www.w3.org/1999/xlink" x="0px" y="0px"
	 viewBox="0 0 355 72" style="enable-background:new 0 0 355 72;" xml:space="preserve">
<style type="text/css">
	.st0{fill:#4CB9EA;}
	.st1{fill:#0080C9;}
	.st2{fill:#0069B4;}
	.st3{fill:#1A4B7E;}
</style>
<g>
	<path class="st0" d="M0.7,19.7l14.3,18l4.6,14.8l-8.3,2.7L0.7,52.5L6,43.2c2.5-4.4,2.5-9.8,0-14.2L0.7,19.7L0.7,19.7z"/>
	<path class="st1" d="M19.6,19.7l5.4,9.3c2.5,4.4,2.5,9.8,0,14.2l-5.4,9.3L0.7,19.7l11-3.9L19.6,19.7L19.6,19.7z"/>
	<path class="st1" d="M52.3,0.8L36,16.4l-16.4,3.4l-3.2-8.5l3.2-10.4l9.3,5.4c4.4,2.5,9.8,2.5,14.2,0L52.3,0.8L52.3,0.8z"/>
	<path class="st0" d="M52.3,19.7l-9.3,5.4c-4.4,2.5-9.8,2.5-14.2,0l-9.3-5.4L31,13.2L52.3,0.8l3.8,10.8L52.3,19.7L52.3,19.7z"/>
	<polygon class="st0" points="19.6,0.8 0.7,19.7 19.6,19.7 19.6,9.9 19.6,0.8 	"/>
	<path class="st2" d="M71.3,52.5L56.6,40.3l-4.3-20.6l7.9-3.4l11,3.4L65.9,29c-2.5,4.4-2.5,9.8,0,14.2L71.3,52.5L71.3,52.5z"/>
	<path class="st3" d="M52.3,52.5L47,43.2c-2.5-4.4-2.5-9.8,0-14.2l5.4-9.3l18.9,32.8l-10.1,3.7L52.3,52.5L52.3,52.5z"/>
	<path class="st3" d="M19.6,71.4l15.9-14.9l16.9-4l4.6,7.9l-4.6,11l-9.3-5.4c-4.4-2.5-9.8-2.5-14.2,0L19.6,71.4L19.6,71.4z"/>
	<path class="st2" d="M19.6,52.5l9.3-5.4c4.4-2.5,9.8-2.5,14.2,0l9.3,5.4L19.6,71.4L15.7,62L19.6,52.5L19.6,52.5z"/>
	<polygon class="st2" points="52.3,71.4 71.3,52.5 52.3,52.5 52.3,71.4 	"/>
	<polygon class="st1" points="71.3,19.7 52.3,0.8 52.3,19.7 71.3,19.7 	"/>
	<polygon class="st3" points="19.6,71.4 19.6,52.5 0.7,52.5 19.6,71.4 	"/>
	<path class="st3" d="M86.5,43.4c-0.6-2-0.9-4.4-0.9-7c0-2.7,0.3-5,0.9-7c0.6-2,1.3-3.6,2.2-4.8c0.9-1.2,2-2.2,3.3-2.9
		c1.3-0.8,2.5-1.3,3.7-1.5c1.2-0.3,2.5-0.4,3.9-0.4c3.1,0,6.1,0.6,9.1,1.9v5.5c-2.9-1.4-5.7-2.1-8.6-2.1c-1.3,0-2.5,0.1-3.5,0.4
		c-1,0.3-1.9,0.8-2.8,1.5c-0.9,0.7-1.6,1.9-2.1,3.5c-0.5,1.6-0.7,3.6-0.7,6c0,2.4,0.2,4.4,0.7,6c0.5,1.6,1.2,2.8,2.1,3.5
		c0.9,0.7,1.8,1.2,2.8,1.5c1,0.3,2.1,0.4,3.5,0.4c2.9,0,5.7-0.7,8.6-2.1v5.5c-3,1.3-6,2-9.1,2c-1.4,0-2.7-0.1-3.9-0.4
		c-1.2-0.3-2.5-0.8-3.7-1.5c-1.3-0.8-2.4-1.7-3.3-2.9C87.8,47,87.1,45.4,86.5,43.4L86.5,43.4z"/>
	<path class="st3" d="M113.4,52.7V20.1h11.5c3.5,0,6.2,0.9,8.2,2.7c1.9,1.8,2.9,4.4,2.9,7.8c0,5-2.2,8.2-6.6,9.6l7.9,12.4h-6.5
		l-7.1-11.5h-4.8v11.5H113.4L113.4,52.7z M118.8,35.8h6c1.8,0,3.3-0.4,4.3-1.1c1-0.7,1.6-2,1.6-4c0-2-0.5-3.3-1.6-4
		c-1-0.7-2.5-1-4.3-1h-6V35.8L118.8,35.8z"/>
	<path class="st3" d="M139.9,36.4c0-2.7,0.3-5,0.9-7c0.6-2,1.3-3.6,2.2-4.8c0.9-1.2,2-2.2,3.3-2.9c1.3-0.8,2.5-1.3,3.7-1.5
		c1.2-0.3,2.5-0.4,3.9-0.4c1.4,0,2.7,0.1,3.9,0.4c1.2,0.3,2.5,0.8,3.7,1.5c1.3,0.7,2.4,1.7,3.3,2.9c0.9,1.2,1.7,2.8,2.2,4.8
		c0.6,2,0.9,4.4,0.9,7c0,2.6-0.3,5-0.9,7c-0.6,2-1.3,3.6-2.2,4.8c-0.9,1.2-2,2.2-3.3,2.9c-1.3,0.8-2.5,1.3-3.7,1.5
		c-1.2,0.3-2.5,0.4-3.9,0.4c-1.4,0-2.7-0.1-3.9-0.4c-1.2-0.3-2.5-0.8-3.7-1.5c-1.3-0.8-2.4-1.7-3.3-2.9c-0.9-1.2-1.6-2.8-2.2-4.8
		C140.1,41.4,139.9,39,139.9,36.4 M145.2,36.4c0,2.4,0.2,4.5,0.7,6.1c0.4,1.6,1.1,2.8,2,3.5c0.9,0.8,1.8,1.3,2.7,1.5
		c0.9,0.3,2,0.4,3.3,0.4c1,0,1.9-0.1,2.7-0.2c0.7-0.1,1.5-0.4,2.3-0.9c0.8-0.5,1.4-1.1,1.9-1.9c0.5-0.8,0.9-2,1.2-3.4
		c0.3-1.4,0.5-3.1,0.5-5.1c0-2.4-0.2-4.4-0.7-6c-0.4-1.6-1.1-2.8-2-3.5c-0.9-0.8-1.8-1.3-2.7-1.5c-0.9-0.3-2-0.4-3.3-0.4
		c-1,0-1.9,0.1-2.6,0.2c-0.7,0.1-1.5,0.5-2.3,0.9c-0.8,0.5-1.4,1.1-1.9,1.9c-0.5,0.8-0.9,1.9-1.2,3.3
		C145.4,32.7,145.2,34.4,145.2,36.4"/>
	<polygon class="st3" points="169.4,20.1 174.8,20.1 181.7,44.7 188.9,20.1 193.6,20.1 200.6,43.8 207.3,20.1 212.7,20.1 
		203.1,52.7 198,52.7 191.3,30 184.6,52.7 179,52.7 169.4,20.1 	"/>
	<path class="st3" d="M216.3,52.7V20.1h10.3c4.6,0,8.2,1.4,10.6,4.1c2.4,2.8,3.6,6.8,3.6,12.1c0,5.3-1.2,9.3-3.6,12.1
		c-2.4,2.8-5.9,4.1-10.6,4.1H216.3L216.3,52.7z M221.7,47.4h4.9c3.1,0,5.4-0.9,6.7-2.6c1.4-1.7,2.1-4.5,2.1-8.4
		c0-3.9-0.7-6.7-2.1-8.5c-1.4-1.7-3.6-2.6-6.7-2.6h-4.9V47.4L221.7,47.4z"/>
	<path class="st2" d="M245.8,43.4c-0.6-2-0.9-4.4-0.9-7c0-2.7,0.3-5,0.9-7c0.6-2,1.3-3.6,2.2-4.8c0.9-1.2,2-2.2,3.3-2.9
		c1.3-0.8,2.5-1.3,3.7-1.5c1.2-0.3,2.5-0.4,3.9-0.4c3.1,0,6.1,0.6,9.1,1.9v5.5c-2.9-1.4-5.7-2.1-8.6-2.1c-1.3,0-2.5,0.1-3.5,0.4
		c-1,0.3-1.9,0.8-2.8,1.5c-0.9,0.7-1.6,1.9-2.1,3.5c-0.5,1.6-0.7,3.6-0.7,6c0,2.4,0.2,4.4,0.7,6c0.5,1.6,1.2,2.8,2.1,3.5
		c0.9,0.7,1.8,1.2,2.8,1.5c1,0.3,2.1,0.4,3.5,0.4c2.9,0,5.7-0.7,8.6-2.1v5.5c-3,1.3-6,2-9.1,2c-1.4,0-2.7-0.1-3.9-0.4
		c-1.2-0.3-2.5-0.8-3.7-1.5c-1.3-0.8-2.4-1.7-3.3-2.9C247.1,47,246.4,45.4,245.8,43.4L245.8,43.4z"/>
	<path class="st2" d="M271.2,36.4c0-2.7,0.3-5,0.9-7c0.6-2,1.3-3.6,2.2-4.8c0.9-1.2,2-2.2,3.3-2.9c1.3-0.8,2.5-1.3,3.7-1.5
		c1.2-0.3,2.5-0.4,3.9-0.4c1.4,0,2.7,0.1,3.9,0.4c1.2,0.3,2.5,0.8,3.7,1.5c1.3,0.7,2.4,1.7,3.3,2.9c0.9,1.2,1.7,2.8,2.2,4.8
		c0.6,2,0.9,4.4,0.9,7c0,2.6-0.3,5-0.9,7c-0.6,2-1.3,3.6-2.2,4.8c-0.9,1.2-2,2.2-3.3,2.9c-1.3,0.8-2.5,1.3-3.7,1.5
		c-1.2,0.3-2.5,0.4-3.9,0.4c-1.4,0-2.7-0.1-3.9-0.4c-1.2-0.3-2.5-0.8-3.7-1.5c-1.3-0.8-2.4-1.7-3.3-2.9c-0.9-1.2-1.6-2.8-2.2-4.8
		C271.5,41.4,271.2,39,271.2,36.4 M276.6,36.4c0,2.4,0.2,4.5,0.7,6.1c0.4,1.6,1.1,2.8,2,3.5c0.9,0.8,1.8,1.3,2.7,1.5
		c0.9,0.3,2,0.4,3.3,0.4c1,0,1.9-0.1,2.7-0.2c0.7-0.1,1.5-0.4,2.3-0.9c0.8-0.5,1.4-1.1,1.9-1.9c0.5-0.8,0.9-2,1.2-3.4
		c0.3-1.4,0.5-3.1,0.5-5.1c0-2.4-0.2-4.4-0.7-6c-0.4-1.6-1.1-2.8-2-3.5c-0.9-0.8-1.8-1.3-2.7-1.5c-0.9-0.3-2-0.4-3.3-0.4
		c-1,0-1.9,0.1-2.6,0.2c-0.7,0.1-1.5,0.5-2.3,0.9c-0.8,0.5-1.4,1.1-1.9,1.9c-0.5,0.8-0.9,1.9-1.2,3.3
		C276.8,32.7,276.6,34.4,276.6,36.4"/>
	<path class="st2" d="M304.3,52.7V20.1h10.3c4.6,0,8.2,1.4,10.6,4.1c2.4,2.8,3.6,6.8,3.6,12.1c0,5.3-1.2,9.3-3.6,12.1
		c-2.4,2.8-5.9,4.1-10.6,4.1H304.3L304.3,52.7z M309.7,47.4h4.9c3.1,0,5.4-0.9,6.7-2.6c1.4-1.7,2.1-4.5,2.1-8.4
		c0-3.9-0.7-6.7-2.1-8.5c-1.4-1.7-3.6-2.6-6.7-2.6h-4.9V47.4L309.7,47.4z"/>
	<polygon class="st2" points="333.7,52.7 333.7,20.1 353.7,20.1 353.7,25.4 339.1,25.4 339.1,33.6 351.7,33.6 351.7,39.2 
		339.1,39.2 339.1,47.4 353.7,47.4 353.7,52.7 333.7,52.7 	"/>
</g>
</svg>
